<svg
    xmlns="http://www.w3.org/2000/svg"
    xmlns:xlink="http://www.w3.org/1999/xlink"
    preserveAspectRatio="xMidYMid"
    width="100"
    height="100"
    viewBox="0 0 100 100"
  >
    <defs>
      <style>
        .cls-1,
        .cls-2 {
          fill: #fead05;
        }

        .cls-1 {
          fill-rule: evenodd;
          opacity: 0;
        }
      </style>
    </defs>
    <path
      id="top_right"
      d="M74.306,18.306 C77.830,13.685 83.085,11.761 86.045,14.009 C89.005,16.256 88.547,21.825 85.024,26.446 C81.500,31.068 76.245,32.992 73.285,30.744 C70.325,28.496 70.783,22.927 74.306,18.306 Z"
      class="cls-1"
    />
    <path
      id="bottom_left"
      d="M13.686,83.666 C17.954,80.796 22.823,80.556 24.561,83.131 C26.299,85.705 24.248,90.120 19.980,92.990 C15.712,95.860 10.843,96.100 9.105,93.525 C7.366,90.951 9.417,86.537 13.686,83.666 Z"
      class="cls-1"
    />
    <path
      id="top_left"
      d="M21.018,8.671 C25.017,12.402 26.435,17.389 24.186,19.808 C21.936,22.227 16.871,21.163 12.872,17.432 C8.873,13.700 7.455,8.714 9.704,6.295 C11.953,3.875 17.019,4.939 21.018,8.671 Z"
      class="cls-1"
    />
    <path
      id="bottom_right"
      d="M91.246,84.148 C95.342,87.350 97.079,91.964 95.126,94.452 C93.173,96.940 88.269,96.361 84.173,93.159 C80.077,89.956 78.340,85.343 80.293,82.854 C82.246,80.366 87.150,80.945 91.246,84.148 Z"
      class="cls-1"
    />
    <rect x="50" y="50" width="25" height="25" class="cls-2" />
  </svg>