<?xml version="1.0" encoding="UTF-8" standalone="no"?>
<svg
   viewBox="0 0 460 240"
   version="1.1"
   id="svg51"
   sodipodi:docname="sprite_arrows.svg"
   inkscape:version="1.1 (c68e22c387, 2021-05-23)"
   width="460"
   height="240"
   xmlns:inkscape="http://www.inkscape.org/namespaces/inkscape"
   xmlns:sodipodi="http://sodipodi.sourceforge.net/DTD/sodipodi-0.dtd"
   xmlns="http://www.w3.org/2000/svg"
   xmlns:svg="http://www.w3.org/2000/svg">
  <defs
     id="defs55" />
  <sodipodi:namedview
     id="namedview53"
     pagecolor="#000000"
     bordercolor="#666666"
     borderopacity="1.0"
     inkscape:pageshadow="2"
     inkscape:pageopacity="0"
     inkscape:pagecheckerboard="0"
     showgrid="false"
     inkscape:zoom="1.6582031"
     inkscape:cx="198.10601"
     inkscape:cy="159.51001"
     inkscape:window-width="1858"
     inkscape:window-height="1057"
     inkscape:window-x="1912"
     inkscape:window-y="892"
     inkscape:window-maximized="1"
     inkscape:current-layer="svg51"
     height="511px" />
  <g
     inkscape:groupmode="layer"
     id="layer1"
     inkscape:label="Layer 1" />
  <!-- Font Awesome Free 5.15.4 by @fontawesome - https://fontawesome.com License - https://fontawesome.com/license/free (Icons: CC BY 4.0, Fonts: SIL OFL 1.1, Code: MIT License) -->
  <path
     d="m 406.14165,232.03875 4.55842,4.71499 c 1.93015,1.99643 5.05123,1.99643 6.96084,0 l 39.91699,-41.26675 c 1.93015,-1.99643 1.93015,-5.22471 0,-7.19991 L 417.66091,146.9991 c -1.93015,-1.99643 -5.05123,-1.99643 -6.96084,0 l -4.55842,4.71499 c -1.95067,2.01768 -1.9096,5.30967 0.0822,7.28487 l 24.74278,24.38199 h -59.0131 c -2.73095,0 -4.92802,2.27254 -4.92802,5.09728 v 6.79638 c 0,2.82474 2.19707,5.09728 4.92802,5.09728 h 59.01308 l -24.74278,24.38199 c -2.01228,1.9752 -2.05335,5.26719 -0.0822,7.28487 z"
     id="path49-1-3"
     style="fill:#ffffff;stroke-width:0.208831"
     inkscape:transform-center-x="47.03887"
     inkscape:transform-center-y="0.60306244" />
  <path
     d="m 269.83787,58.983661 4.6769,-4.71499 c 1.9803,-1.99644 1.9803,-5.22471 0,-7.1999 L 233.5814,5.780781 c -1.9803,-1.99644 -5.1825,-1.99644 -7.14174,0 l -40.95443,41.28799 c -1.9803,1.99644 -1.9803,5.22471 0,7.1999 l 4.67689,4.71499 c 2.00139,2.01767 5.26679,1.97519 7.22603,-0.085 l 24.18502,-25.5926 v 61.039946 c 0,2.824748 2.25417,5.097278 5.0561,5.097278 h 6.74148 c 2.80192,0 5.0561,-2.27253 5.0561,-5.097278 V 33.306061 l 24.185,25.5926 c 1.95925,2.08139 5.22465,2.12387 7.22602,0.085 z"
     id="path49-1-3-9"
     style="fill:#ffffff;stroke-width:0.211527" />
  <path
     d="m 54.69305,152.21458 -4.558426,-4.71499 c -1.930145,-1.99643 -5.051218,-1.99643 -6.960821,0 L 3.2567975,188.76634 c -1.9301469,1.99643 -1.9301469,5.22471 0,7.19991 l 39.9170055,41.28798 c 1.930147,1.99643 5.05122,1.99643 6.960821,0 l 4.558426,-4.71499 c 1.950672,-2.01769 1.909603,-5.30967 -0.08218,-7.28488 L 29.868085,200.87237 h 59.01308 c 2.730952,0 4.928022,-2.27253 4.928022,-5.09728 v -6.79638 c 0,-2.82474 -2.19707,-5.09728 -4.928022,-5.09728 h -59.01308 l 24.742787,-24.38198 c 2.012277,-1.9752 2.053346,-5.2672 0.08218,-7.28487 z"
     id="path49-1-3-9-3"
     style="fill:#ffffff;stroke-width:0.208831" />
</svg>
